# xmcd
#
# Track frame offsets:
#	150
#	15538
#	22910
#	31901
#	47768
#	62423
#	76925
#	85194
#	97820
#	108755
#	123266
#	140493
#	149242
#	159859
#	174234
#
# Disc length: 2515 seconds
#
# Revision: 0
# Processed by: cddbd v1.5.2PL0 Copyright (c) Steve Scherf et al.
# Submitted via: dBpowerAMP V4.0
#
DISCID=ab09d10f
DTITLE=Leah Thys - My tribute to the diva
DYEAR=1900
DGENRE=
TTITLE0=Sag mir wo die blumen sind
TTITLE1=Lola
TTITLE2=I can't give you anything but love
TTITLE3=Ich bin von kopf bis fuss
TTITLE4=The laziest gal in town
TTITLE5=Die welt war jung
TTITLE6=The boys in the backroom
TTITLE7=Ich weiss nicht zu wem ich gehore
TTITLE8=I get a kick out of you
TTITLE9=I wish you love
TTITLE10=Illusions
TTITLE11=You do something to me
TTITLE12=Johnny
TTITLE13=Wenn ich mir was wunschen durfte
TTITLE14=Das lied ist aus
EXTD=
EXTT0=
EXTT1=
EXTT2=
EXTT3=
EXTT4=
EXTT5=
EXTT6=
EXTT7=
EXTT8=
EXTT9=
EXTT10=
EXTT11=
EXTT12=
EXTT13=
EXTT14=
PLAYORDER=
